<?xml version="1.0" standalone="no"?>
<!DOCTYPE svg PUBLIC "-//W3C//DTD SVG 20010904//EN"
 "http://www.w3.org/TR/2001/REC-SVG-20010904/DTD/svg10.dtd">
<svg version="1.0" xmlns="http://www.w3.org/2000/svg"
 width="600.000000pt" height="600.000000pt" viewBox="0 0 600.000000 600.000000"
 preserveAspectRatio="xMidYMid meet">

<g transform="translate(0.000000,600.000000) scale(0.100000,-0.100000)"
fill="#000000" stroke="none">
<path d="M2545 5694 c-416 -63 -904 -218 -1071 -342 -47 -34 -94 -119 -94
-168 0 -37 20 -71 402 -674 834 -1320 836 -1323 932 -1369 117 -57 242 -2 293
130 25 65 21 263 -16 844 -64 984 -99 1442 -115 1472 -18 35 -51 65 -96 89
-35 18 -167 28 -235 18z"/>
<path d="M4232 4082 c-35 -17 -130 -138 -404 -512 -74 -102 -198 -272 -276
-378 -91 -124 -146 -208 -153 -235 -23 -88 26 -196 119 -262 38 -26 51 -30
115 -30 48 0 106 10 172 28 55 15 321 81 590 147 270 67 509 130 532 141 74
36 109 121 91 220 -43 235 -434 799 -609 879 -54 24 -131 25 -177 2z"/>
<path d="M1115 3165 c-72 -47 -110 -129 -139 -300 -59 -346 -40 -758 40 -882
63 -97 128 -110 299 -59 262 78 1118 356 1148 373 17 11 45 38 62 62 26 37 30
53 34 121 2 65 -1 87 -18 123 -43 88 -10 73 -966 460 -346 140 -388 149 -460
102z"/>
<path d="M3583 2170 c-94 -54 -150 -173 -124 -266 6 -22 122 -220 257 -440
451 -731 452 -732 532 -754 78 -20 154 11 272 113 249 215 540 648 540 802 0
17 -12 54 -26 83 -22 45 -33 55 -87 81 -110 52 -1217 411 -1267 411 -32 0 -61
-9 -97 -30z"/>
<path d="M2659 1922 c-35 -20 -128 -123 -363 -399 -395 -466 -501 -595 -522
-635 -24 -46 -15 -137 18 -183 41 -57 121 -112 273 -186 363 -176 720 -257
842 -192 59 32 83 72 94 151 4 37 8 346 9 686 0 605 0 621 -21 662 -53 111
-222 160 -330 96z"/>
</g>
</svg>
